<svg id="prefix__Layer_1" data-name="Layer 1" xmlns="http://www.w3.org/2000/svg" viewBox="0 0 512 512">
    <defs>
        <clipPath id="prefix__clip-path">
            <path fill="#d4b26c"
                  d="M256 485.94S458.57 309.66 457.86 74.63c-201.86-117.52-403.72 0-403.72 0C54.14 309.66 256 485.94 256 485.94z"></path>
        </clipPath>
    </defs>
    <path fill="#d4b26c"
          d="M250.07 492.72c-2.09-1.83-51.9-45.66-102.43-119.2-29.7-43.23-53.38-87.73-70.38-132.26-21.32-55.85-32.13-111.92-32.13-166.63v-5.18l4.48-2.61C50.55 66.29 73.22 53.2 111 40c34.76-12.15 89.44-26.62 152.5-26.62 71.06 0 138 18 198.91 53.45l4.46 2.6v5.16c.13 54.73-10.54 110.8-31.87 166.67-17 44.53-40.66 89-70.42 132.27C314 447.07 264 490.91 261.91 492.74l-5.91 5.15z"></path>
    <path d="M263.48 22.4c59.8 0 127.1 13.06 194.38 52.23C458.57 309.66 256 485.94 256 485.94S54.14 309.66 54.14 74.63c0 0 89.71-52.23 209.34-52.23m0-18c-64.33 0-120 14.75-155.47 27.12-38.57 13.47-62 27-62.94 27.55l-9 5.22v10.34c0 55.81 11 113 32.72 169.85 17.26 45.19 41.27 90.33 71.38 134.15 51.16 74.46 101.79 119 103.93 120.88l11.9 10.34 11.85-10.32c2.15-1.86 52.93-46.42 104.15-120.89 30.17-43.83 54.2-89 71.42-134.17 21.68-56.91 32.59-114.07 32.42-169.9V64.25l-8.93-5.2C404.6 22.77 336.15 4.38 263.48 4.38z"
          fill="#1a1a1a"></path>
    <path fill="#d4b26c"
          d="M256 485.94S458.57 309.66 457.86 74.63c-201.86-117.52-403.72 0-403.72 0C54.14 309.66 256 485.94 256 485.94z"></path>
    <g clip-path="url(#prefix__clip-path)">
        <g class="" style="transform-style:preserve-3d;transform-origin:50% 43%">
            <path class="prefix__cls-4" fill="none" stroke="#1a1a1a" stroke-miterlimit="10" stroke-width="4px"
                  vector-effect="non-scaling-stroke"
                  d="M235.08 148.79a1037.71 1037.71 0 00-86.41 66.82A623.07 623.07 0 0095.73 267c-28.39 31.35-50.68 64.33-60 96.77"></path>
            <path class="prefix__cls-4" fill="none" stroke="#1a1a1a" stroke-miterlimit="10" stroke-width="4px"
                  vector-effect="non-scaling-stroke"
                  d="M191.87 182.2A1036.19 1036.19 0 00178 290.55a624.7 624.7 0 00-1.11 73.77c2.1 42.23 9.66 81.32 26 110.83"></path>
            <path class="prefix__cls-4" fill="none" stroke="#1a1a1a" stroke-miterlimit="10" stroke-width="4px"
                  vector-effect="non-scaling-stroke"
                  d="M184.76 237.36a1035.08 1035.08 0 0066.82 86.41A624.52 624.52 0 00303 376.71c31.35 28.38 64.33 50.67 96.77 60"></path>
            <path class="prefix__cls-4" fill="none" stroke="#1a1a1a" stroke-miterlimit="10" stroke-width="4px"
                  vector-effect="non-scaling-stroke"
                  d="M218.84 281.41a1033.52 1033.52 0 00108.35 13.85 622.57 622.57 0 0073.81 1.11c42.23-2.1 81.32-9.66 110.83-26"></path>
            <path class="prefix__cls-4" fill="none" stroke="#1a1a1a" stroke-miterlimit="10" stroke-width="4px"
                  vector-effect="non-scaling-stroke"
                  d="M273 288.34a1035.49 1035.49 0 0086.4-66.82 624.7 624.7 0 0052.95-51.38c28.38-31.35 50.67-64.33 60-96.77"></path>
            <path class="prefix__cls-4" fill="none" stroke="#1a1a1a" stroke-miterlimit="10" stroke-width="4px"
                  vector-effect="non-scaling-stroke"
                  d="M317 254.37A1036.11 1036.11 0 00330.9 146a624.68 624.68 0 001.1-73.75C329.9 30 322.34-9.07 306-38.58"></path>
            <path class="prefix__cls-4" fill="none" stroke="#1a1a1a" stroke-miterlimit="10" stroke-width="4px"
                  vector-effect="non-scaling-stroke"
                  d="M324.16 199.22a1037.71 1037.71 0 00-66.82-86.41A624.7 624.7 0 00206 59.86c-31.35-28.38-64.33-50.67-96.77-60"></path>
            <path class="prefix__cls-4" fill="none" stroke="#1a1a1a" stroke-miterlimit="10" stroke-width="4px"
                  vector-effect="non-scaling-stroke"
                  d="M290.9 155.94a1033.52 1033.52 0 00-108.35-13.85 622.57 622.57 0 00-73.77-1.09C66.55 143.08 27.46 150.64-2 167"></path>
        </g>
    </g>
</svg>